<?xml version="1.0" standalone="no"?>
<!DOCTYPE svg PUBLIC "-//W3C//DTD SVG 20010904//EN"
 "http://www.w3.org/TR/2001/REC-SVG-20010904/DTD/svg10.dtd">
<svg version="1.0" xmlns="http://www.w3.org/2000/svg"
 width="700.000000pt" height="700.000000pt" viewBox="0 0 700.000000 700.000000"
 preserveAspectRatio="xMidYMid meet">
<metadata>
Created by potrace 1.14, written by Peter Selinger 2001-2017
</metadata>
<g transform="translate(0.000000,700.000000) scale(0.100000,-0.100000)"
fill="#000000" stroke="none">
<path d="M3359 5050 c-29 -8 -69 -29 -85 -44 -6 -6 -22 -18 -34 -26 -12 -8
-72 -52 -133 -97 -62 -46 -123 -91 -136 -100 -33 -24 -91 -66 -273 -200 -741
-545 -973 -717 -988 -732 -44 -41 -56 -86 -60 -221 l-1 -45 -17 35 c-10 19
-52 96 -94 170 -79 141 -125 225 -166 300 -35 64 -54 81 -99 87 -52 7 -79 -17
-136 -122 -25 -44 -57 -102 -72 -130 -16 -27 -58 -104 -95 -170 -37 -66 -82
-147 -100 -180 -18 -33 -50 -91 -71 -128 -22 -38 -39 -70 -39 -72 0 -1 -18
-34 -40 -71 l-40 -69 0 -1042 c0 -787 3 -1048 12 -1068 27 -59 -167 -55 2717
-55 l2651 0 32 29 33 29 1 1049 c1 792 -2 1054 -11 1073 -7 14 -101 185 -210
380 -108 195 -211 380 -227 410 -55 99 -67 116 -93 128 -38 17 -69 15 -98 -8
-23 -18 -39 -44 -122 -195 -64 -115 -207 -370 -211 -374 -2 -2 -3 34 -3 80 0
53 -5 97 -15 120 -15 36 -69 89 -147 145 -24 17 -217 159 -429 314 -212 156
-419 308 -460 338 -151 111 -165 122 -175 129 -40 32 -388 285 -421 307 -42
28 -100 38 -145 26z"/>
</g>
</svg>
